# xmcd CD database file
#
# Track frame offsets:
#	150
#	29753
#	77485
#	110709
#	193068
#
# Disc length: 2883 seconds
#
# Revision: 1
# Processed by: cddbd v1.5.1PL0 Copyright (c) Steve Scherf et al.
# Submitted via: CDex 1.51
#
DISCID=3f0b4105
DTITLE=HERBERT JOOS-PATRIK BEBELAAR - THE BEAUTY OF DARKNESS
DYEAR=2004
DGENRE=Jazz
TTITLE0=CHAPTER 1
TTITLE1=CHAPTER 2
TTITLE2=CHAPTER 3
TTITLE3=CHAPTER 4
TTITLE4=RA
EXTD=YEAR: 2004
EXTT0=
EXTT1=
EXTT2=
EXTT3=
EXTT4=
PLAYORDER=
